# Blender 4.5.0 Beta
# www.blender.org
mtllib cave.mtl
o Cylinder
v 1.000000 -0.000000 -0.724405
v -1.000000 0.000000 -0.555202
v 1.000000 0.131794 -0.662574
v -1.000000 0.120265 -0.604613
v 1.000000 0.239525 -0.578264
v -1.000000 0.267001 -0.644597
v 1.000000 0.336176 -0.503124
v -1.000000 0.448418 -0.671104
v 1.000000 0.500175 -0.500175
v -1.000000 0.571830 -0.571830
v 1.000000 0.613447 -0.409892
v -1.000000 0.666239 -0.445167
v 1.000000 0.723491 -0.299680
v -1.000000 0.663494 -0.274828
v 1.000000 0.728401 -0.144888
v -1.000000 0.694014 -0.138048
v 1.000000 0.691938 0.000000
v -1.000000 0.654348 0.000000
v 1.000000 0.620420 0.123409
v -1.000000 0.627405 0.124799
v 1.000000 0.533836 0.221122
v -1.000000 0.582651 0.241342
v 1.000000 0.555568 0.371219
v -1.000000 0.472895 0.315979
v 1.000000 0.504905 0.504905
v -1.000000 0.337225 0.337225
v 1.000000 0.452930 0.677857
v -1.000000 0.237247 0.355066
v 1.000000 0.343466 0.829199
v -1.000000 0.174032 0.420151
v 1.000000 0.168776 0.848494
v -1.000000 0.107306 0.539464
v 1.000000 -0.000000 0.879718
v -1.000000 0.000000 0.545642
v 1.000000 -0.156610 0.787332
v -1.000000 -0.108034 0.543123
v 1.000000 -0.306011 0.738777
v -1.000000 -0.238581 0.575986
v 1.000000 -0.413177 0.618362
v -1.000000 -0.387938 0.580590
v 1.000000 -0.481068 0.481067
v -1.000000 -0.491806 0.491806
v 1.000000 -0.540372 0.361065
v -1.000000 -0.583870 0.390130
v 1.000000 -0.543521 0.225134
v -1.000000 -0.635186 0.263103
v 1.000000 -0.633923 0.126095
v -1.000000 -0.602532 0.119851
v 1.000000 -0.648303 0.000000
v -1.000000 -0.561109 0.000000
v 1.000000 -0.609015 -0.121141
v -1.000000 -0.536346 -0.106686
v 1.000000 -0.633692 -0.262484
v -1.000000 -0.599486 -0.248315
v 1.000000 -0.627152 -0.419049
v -1.000000 -0.541214 -0.361628
v 1.000000 -0.559327 -0.559327
v -1.000000 -0.447727 -0.447727
v 1.000000 -0.455228 -0.681297
v -1.000000 -0.301621 -0.451408
v 1.000000 -0.317944 -0.767583
v -1.000000 -0.201420 -0.486271
v 1.000000 -0.154400 -0.776219
v -1.000000 -0.100106 -0.503265
v 0.777778 -0.000000 -0.686637
v 0.555556 -0.000000 -0.665490
v 0.333333 -0.000000 -0.611647
v 0.111111 -0.000000 -0.593083
v -0.111111 0.000000 -0.565297
v -0.333333 0.000000 -0.564311
v -0.555556 0.000000 -0.602901
v -0.777778 0.000000 -0.599332
v -0.777778 0.136754 -0.687509
v -0.555556 0.138363 -0.695598
v -0.333333 0.133937 -0.673347
v -0.111111 0.114306 -0.574655
v 0.111111 0.134599 -0.676676
v 0.333333 0.138907 -0.698334
v 0.555556 0.159966 -0.804202
v 0.777778 0.150463 -0.756429
v -0.777778 0.286613 -0.691944
v -0.555556 0.281560 -0.679745
v -0.333333 0.257920 -0.622674
v -0.111111 0.239476 -0.578147
v 0.111111 0.282137 -0.681140
v 0.333333 0.295919 -0.714412
v 0.555556 0.294597 -0.711220
v 0.777778 0.284256 -0.686254
v -0.777778 0.453509 -0.678724
v -0.555556 0.410137 -0.613813
v -0.333333 0.393722 -0.589247
v -0.111111 0.366326 -0.548245
v 0.111111 0.433738 -0.649135
v 0.333333 0.473014 -0.707916
v 0.555556 0.436036 -0.652574
v 0.777778 0.421587 -0.630949
v -0.777778 0.543047 -0.543047
v -0.555556 0.545335 -0.545335
v -0.333333 0.543507 -0.543507
v -0.111111 0.513358 -0.513358
v 0.111111 0.551327 -0.551327
v 0.333333 0.669822 -0.669822
v 0.555556 0.617638 -0.617638
v 0.777778 0.542182 -0.542182
v -0.777778 0.633700 -0.423425
v -0.555556 0.609009 -0.406927
v -0.333333 0.582139 -0.388973
v -0.111111 0.618622 -0.413350
v 0.111111 0.714631 -0.477501
v 0.333333 0.838347 -0.560165
v 0.555556 0.727465 -0.486076
v 0.777778 0.701541 -0.468754
v -0.777778 0.651440 -0.269835
v -0.555556 0.641549 -0.265738
v -0.333333 0.578407 -0.239584
v -0.111111 0.700187 -0.290027
v 0.111111 0.823346 -0.341041
v 0.333333 0.874912 -0.362401
v 0.555556 0.783600 -0.324578
v 0.777778 0.738011 -0.305694
v -0.777778 0.665116 -0.132300
v -0.555556 0.607640 -0.120867
v -0.333333 0.628149 -0.124947
v -0.111111 0.711602 -0.141546
v 0.111111 0.834784 -0.166049
v 0.333333 0.863500 -0.171761
v 0.555556 0.749241 -0.149033
v 0.777778 0.675738 -0.134413
v -0.777778 0.626422 0.000000
v -0.555556 0.585113 -0.000000
v -0.333333 0.625112 0.000000
v -0.111111 0.738131 0.000000
v 0.111111 0.841262 0.000000
v 0.333333 0.849579 0.000000
v 0.555556 0.745196 -0.000000
v 0.777778 0.609145 -0.000000
v -0.777778 0.570857 0.113551
v -0.555556 0.534664 0.106351
v -0.333333 0.604837 0.120310
v -0.111111 0.717201 0.142660
v 0.111111 0.857495 0.170566
v 0.333333 0.744983 0.148186
v 0.555556 0.690642 0.137377
v 0.777778 0.558483 0.111089
v -0.777778 0.512131 0.212132
v -0.555556 0.463188 0.191859
v -0.333333 0.545918 0.226127
v -0.111111 0.669148 0.277170
v 0.111111 0.736023 0.304871
v 0.333333 0.675682 0.279877
v 0.555556 0.636554 0.263669
v 0.777778 0.546290 0.226281
v -0.777778 0.396902 0.265202
v -0.555556 0.369141 0.246652
v -0.333333 0.531739 0.355296
v -0.111111 0.610153 0.407691
v 0.111111 0.626160 0.418387
v 0.333333 0.562341 0.375744
v 0.555556 0.612536 0.409284
v 0.777778 0.554941 0.370800
v -0.777778 0.287252 0.287252
v -0.555556 0.385269 0.385269
v -0.333333 0.463541 0.463541
v -0.111111 0.511923 0.511923
v 0.111111 0.514109 0.514109
v 0.333333 0.542064 0.542064
v 0.555556 0.561514 0.561514
v 0.777778 0.531274 0.531274
v -0.777778 0.257470 0.385330
v -0.555556 0.349128 0.522507
v -0.333333 0.416222 0.622920
v -0.111111 0.405019 0.606154
v 0.111111 0.449096 0.672119
v 0.333333 0.457708 0.685009
v 0.555556 0.495858 0.742103
v 0.777778 0.480164 0.718616
v -0.777778 0.206983 0.499701
v -0.555556 0.256646 0.619598
v -0.333333 0.271394 0.655202
v -0.111111 0.267318 0.645362
v 0.111111 0.303071 0.731679
v 0.333333 0.309998 0.748402
v 0.555556 0.365183 0.881630
v 0.777778 0.360770 0.870975
v -0.777778 0.111057 0.558323
v -0.555556 0.124925 0.628040
v -0.333333 0.135429 0.680850
v -0.111111 0.132345 0.665342
v 0.111111 0.136743 0.687455
v 0.333333 0.142749 0.717647
v 0.555556 0.174070 0.875107
v 0.777778 0.189575 0.953059
v -0.777778 0.000000 0.632251
v -0.555556 0.000000 0.684258
v -0.333333 0.000000 0.712437
v -0.111111 0.000000 0.719115
v 0.111111 -0.000000 0.687969
v 0.333333 -0.000000 0.733386
v 0.555556 -0.000000 0.787114
v 0.777778 -0.000000 0.920597
v -0.777778 -0.128313 0.645072
v -0.555556 -0.145265 0.730299
v -0.333333 -0.150129 0.754748
v -0.111111 -0.141264 0.710182
v 0.111111 -0.145445 0.731203
v 0.333333 -0.142176 0.714765
v 0.555556 -0.145305 0.730497
v 0.777778 -0.169799 0.853638
v -0.777778 -0.280093 0.676204
v -0.555556 -0.287397 0.693837
v -0.333333 -0.316013 0.762922
v -0.111111 -0.290073 0.700299
v 0.111111 -0.312128 0.753542
v 0.333333 -0.302711 0.730809
v 0.555556 -0.264485 0.638523
v 0.777778 -0.296971 0.716950
v -0.777778 -0.419192 0.627365
v -0.555556 -0.424863 0.635853
v -0.333333 -0.443033 0.663045
v -0.111111 -0.432072 0.646642
v 0.111111 -0.440317 0.658981
v 0.333333 -0.435975 0.652483
v 0.555556 -0.384134 0.574898
v 0.777778 -0.378041 0.565778
v -0.777778 -0.545786 0.545786
v -0.555556 -0.537548 0.537548
v -0.333333 -0.579695 0.579695
v -0.111111 -0.587160 0.587160
v 0.111111 -0.576839 0.576839
v 0.333333 -0.554870 0.554870
v 0.555556 -0.520724 0.520724
v 0.777778 -0.447147 0.447147
v -0.777778 -0.610894 0.408186
v -0.555556 -0.660190 0.441125
v -0.333333 -0.715008 0.477753
v -0.111111 -0.710476 0.474725
v 0.111111 -0.693315 0.463258
v 0.333333 -0.668909 0.446950
v 0.555556 -0.602423 0.402526
v 0.777778 -0.553756 0.370008
v -0.777778 -0.693136 0.287106
v -0.555556 -0.740170 0.306589
v -0.333333 -0.748451 0.310019
v -0.111111 -0.820470 0.339850
v 0.111111 -0.764095 0.316499
v 0.333333 -0.703861 0.291549
v 0.555556 -0.680766 0.281983
v 0.777778 -0.583343 0.241629
v -0.777778 -0.706115 0.140455
v -0.555556 -0.760730 0.151319
v -0.333333 -0.798889 0.158909
v -0.111111 -0.776085 0.154373
v 0.111111 -0.738944 0.146985
v 0.333333 -0.703360 0.139907
v 0.555556 -0.628306 0.124978
v 0.777778 -0.595210 0.118395
v -0.777778 -0.599611 0.000000
v -0.555556 -0.683513 0.000000
v -0.333333 -0.737430 0.000000
v -0.111111 -0.746049 0.000000
v 0.111111 -0.669864 -0.000000
v 0.333333 -0.624641 -0.000000
v 0.555556 -0.598391 0.000000
v 0.777778 -0.638862 0.000000
v -0.777778 -0.532731 -0.105967
v -0.555556 -0.594849 -0.118323
v -0.333333 -0.654970 -0.130282
v -0.111111 -0.713168 -0.141858
v 0.111111 -0.738019 -0.146801
v 0.333333 -0.709303 -0.141089
v 0.555556 -0.650959 -0.129484
v 0.777778 -0.652865 -0.129863
v -0.777778 -0.548523 -0.227206
v -0.555556 -0.619675 -0.256678
v -0.333333 -0.712168 -0.294990
v -0.111111 -0.721843 -0.298997
v 0.111111 -0.719354 -0.297966
v 0.333333 -0.714414 -0.295920
v 0.555556 -0.638581 -0.264509
v 0.777778 -0.641483 -0.265711
v -0.777778 -0.540623 -0.361233
v -0.555556 -0.612329 -0.409145
v -0.333333 -0.619791 -0.414131
v -0.111111 -0.599978 -0.400892
v 0.111111 -0.658034 -0.439685
v 0.333333 -0.620629 -0.414691
v 0.555556 -0.605817 -0.404794
v 0.777778 -0.602457 -0.402549
v -0.777778 -0.439094 -0.439094
v -0.555556 -0.484745 -0.484745
v -0.333333 -0.496970 -0.496970
v -0.111111 -0.496840 -0.496840
v 0.111111 -0.522902 -0.522902
v 0.333333 -0.475880 -0.475880
v 0.555556 -0.473847 -0.473847
v 0.777778 -0.505170 -0.505170
v -0.777778 -0.348741 -0.521928
v -0.555556 -0.360685 -0.539803
v -0.333333 -0.388771 -0.581836
v -0.111111 -0.369282 -0.552670
v 0.111111 -0.361538 -0.541080
v 0.333333 -0.344044 -0.514898
v 0.555556 -0.307261 -0.459849
v 0.777778 -0.382988 -0.573182
v -0.777778 -0.254020 -0.613258
v -0.555556 -0.235293 -0.568047
v -0.333333 -0.233190 -0.562971
v -0.111111 -0.248672 -0.600348
v 0.111111 -0.230593 -0.556700
v 0.333333 -0.213212 -0.514739
v 0.555556 -0.213410 -0.515216
v 0.777778 -0.249194 -0.601608
v -0.777778 -0.120130 -0.603934
v -0.555556 -0.122430 -0.615497
v -0.333333 -0.113951 -0.572872
v -0.111111 -0.117952 -0.592985
v 0.111111 -0.109381 -0.549898
v 0.333333 -0.107878 -0.542340
v 0.555556 -0.121571 -0.611181
v 0.777778 -0.124712 -0.626971
vn -0.3072 0.2420 -0.9203
vn -0.2747 -0.3366 -0.9007
vn 0.2610 0.3427 -0.9025
vn -0.2630 -0.3529 -0.8979
vn 0.5007 0.4993 -0.7071
vn -0.2427 -0.1587 -0.9570
vn 0.5591 0.2950 -0.7748
vn -0.0211 0.3631 -0.9315
vn 0.3662 0.3980 -0.8411
vn 0.1801 0.7081 -0.6828
vn 0.2696 0.6769 -0.6849
vn 0.1693 0.9346 -0.3127
vn 0.0705 0.9155 -0.3962
vn 0.0847 0.9885 -0.1253
vn -0.1289 0.9747 0.1824
vn 0.1027 0.9936 0.0463
vn -0.2787 0.8792 0.3865
vn 0.1200 0.9625 0.2434
vn -0.2705 0.7930 0.5459
vn 0.2049 0.9268 0.3148
vn -0.0581 0.9782 0.1992
vn 0.2832 0.7470 0.6016
vn 0.0147 0.9921 0.1246
vn 0.2878 0.3543 0.8897
vn 0.0966 0.9554 0.2790
vn 0.2595 0.1646 0.9516
vn 0.1794 0.8897 0.4199
vn 0.0107 0.5799 0.8146
vn 0.2073 0.4905 0.8464
vn -0.2379 0.8025 0.5471
vn 0.2945 0.1342 0.9462
vn -0.1805 0.4631 0.8678
vn 0.2162 -0.1418 0.9660
vn -0.2667 0.1020 0.9584
vn 0.1568 -0.5010 0.8511
vn -0.3852 0.1106 0.9162
vn -0.1040 -0.5415 0.8343
vn -0.3957 0.1333 0.9087
vn -0.1967 -0.8347 0.5144
vn -0.3157 -0.3665 0.8752
vn -0.2146 -0.8702 0.4434
vn -0.2423 -0.6969 0.6750
vn 0.0155 -0.9381 0.3459
vn -0.1447 -0.8387 0.5251
vn 0.0671 -0.9574 0.2810
vn -0.2885 -0.9445 0.1573
vn -0.1217 -0.8906 0.4381
vn -0.3007 -0.8933 -0.3340
vn -0.0422 -0.9942 -0.0992
vn -0.0969 -0.9404 -0.3260
vn 0.1115 -0.9937 -0.0056
vn 0.0722 -0.9961 0.0498
vn 0.0391 -0.9990 -0.0207
vn 0.1323 -0.9911 0.0175
vn -0.1911 -0.9363 -0.2946
vn 0.0032 -0.7956 -0.6058
vn -0.3855 -0.7397 -0.5515
vn -0.0985 -0.4622 -0.8813
vn -0.5024 -0.5617 -0.6573
vn -0.3322 -0.1812 -0.9256
vn -0.5842 -0.2155 -0.7825
vn -0.4288 -0.2441 -0.8698
vn -0.5679 0.0790 -0.8193
vn -0.4168 -0.2838 -0.8636
vn -0.0379 -0.3594 -0.9324
vn -0.1299 -0.5004 -0.8560
vn -0.1530 -0.5177 -0.8418
vn -0.1177 -0.4297 -0.8952
vn -0.0240 0.0176 -0.9996
vn 0.1341 -0.2474 -0.9596
vn 0.0587 -0.2615 -0.9634
vn -0.1236 -0.2508 -0.9601
vn -0.1295 -0.2922 -0.9476
vn 0.0588 -0.2096 -0.9760
vn 0.2093 -0.1467 -0.9668
vn -0.0282 -0.1680 -0.9854
vn -0.2341 -0.2718 -0.9334
vn -0.1646 -0.2870 -0.9437
vn -0.1039 -0.0290 -0.9942
vn 0.2395 -0.0009 -0.9709
vn -0.0080 0.0366 -0.9993
vn 0.1240 0.2553 -0.9589
vn 0.2106 0.2789 -0.9369
vn -0.0813 0.1293 -0.9883
vn -0.2870 0.0816 -0.9544
vn -0.0477 0.0192 -0.9987
vn 0.0054 0.4084 -0.9128
vn 0.2839 0.4150 -0.8644
vn 0.1405 0.5054 -0.8514
vn 0.1171 0.4440 -0.8883
vn 0.1832 0.2759 -0.9436
vn -0.1298 0.2270 -0.9652
vn -0.3230 0.3643 -0.8735
vn -0.0637 0.1626 -0.9846
vn 0.1965 0.2869 -0.9376
vn 0.2750 0.4414 -0.8541
vn 0.1035 0.7651 -0.6355
vn 0.0224 0.7056 -0.7083
vn 0.1397 0.7165 -0.6834
vn -0.1322 0.5540 -0.8220
vn -0.3927 0.4778 -0.7858
vn -0.0976 0.4069 -0.9082
vn 0.3123 0.4499 -0.8367
vn 0.3080 0.4645 -0.8303
vn 0.1100 0.9350 -0.3371
vn 0.1000 0.9507 -0.2934
vn -0.0085 0.9731 -0.2303
vn -0.2945 0.7086 -0.6413
vn -0.4811 0.5910 -0.6475
vn -0.0220 0.8316 -0.5549
vn 0.2928 0.8251 -0.4832
vn 0.3401 0.7560 -0.5593
vn 0.0753 0.9890 -0.1274
vn 0.1633 0.9865 -0.0123
vn -0.1494 0.9821 -0.1148
vn -0.4557 0.8523 -0.2566
vn -0.3590 0.8760 -0.3220
vn 0.0432 0.9903 -0.1317
vn 0.3073 0.9493 -0.0662
vn 0.1754 0.9840 -0.0318
vn 0.1490 0.9817 0.1185
vn 0.1060 0.9829 0.1507
vn -0.2517 0.9462 -0.2033
vn -0.4498 0.8821 -0.1399
vn -0.2913 0.9554 -0.0485
vn 0.1395 0.9878 0.0687
vn 0.3517 0.9278 0.1246
vn 0.0641 0.9378 0.3412
vn 0.1776 0.9275 0.3289
vn -0.0260 0.9559 0.2925
vn -0.3070 0.9462 0.1022
vn -0.4351 0.9004 0.0086
vn -0.2549 0.9659 -0.0465
vn 0.2534 0.9392 0.2318
vn 0.3980 0.8851 0.2412
vn 0.1072 0.8964 0.4300
vn 0.2169 0.8651 0.4523
vn -0.0738 0.8507 0.5204
vn -0.3756 0.8723 0.3130
vn -0.4435 0.8649 0.2350
vn -0.1198 0.9226 0.3667
vn 0.3274 0.8048 0.4950
vn 0.3488 0.8689 0.3512
vn 0.1879 0.9330 0.3068
vn 0.2591 0.6452 0.7187
vn -0.1722 0.6662 0.7256
vn -0.4267 0.8574 0.2879
vn -0.3465 0.8612 0.3718
vn -0.0272 0.7683 0.6395
vn 0.2468 0.7647 0.5953
vn 0.2071 0.9268 0.3133
vn 0.2402 0.9700 0.0383
vn 0.2165 0.2999 0.9291
vn -0.3641 0.7800 0.5090
vn -0.4574 0.8300 0.3193
vn -0.2110 0.8137 0.5416
vn 0.0735 0.6999 0.7104
vn 0.0359 0.8774 0.4784
vn 0.0208 0.9780 0.2077
vn 0.1783 0.9809 0.0779
vn -0.0809 0.6869 0.7223
vn -0.4676 0.8766 0.1136
vn -0.3685 0.8427 0.3925
vn -0.0946 0.7303 0.6765
vn -0.0655 0.8304 0.5533
vn -0.1402 0.9351 0.3254
vn -0.0023 0.9408 0.3390
vn 0.1741 0.9594 0.2219
vn -0.3544 0.8719 0.3380
vn -0.4265 0.7735 0.4688
vn -0.2426 0.6129 0.7520
vn -0.0948 0.5217 0.8478
vn -0.2143 0.6763 0.7047
vn -0.1609 0.6715 0.7233
vn -0.1355 0.8257 0.5476
vn 0.1547 0.8792 0.4506
vn -0.3547 0.6916 0.6292
vn -0.3423 0.4078 0.8465
vn -0.1109 0.2505 0.9618
vn -0.1192 0.1689 0.9784
vn -0.2186 0.0704 0.9733
vn -0.3046 0.1515 0.9403
vn -0.2406 0.3709 0.8970
vn 0.1124 0.5417 0.8330
vn -0.2292 0.4924 0.8397
vn -0.2918 0.2766 0.9156
vn -0.0568 0.2090 0.9763
vn 0.0071 0.2176 0.9760
vn -0.1657 -0.0810 0.9829
vn -0.2838 -0.0927 0.9544
vn -0.4062 -0.1475 0.9018
vn 0.0484 0.1419 0.9887
vn -0.3063 0.2979 0.9041
vn -0.2066 0.3169 0.9257
vn -0.0220 0.2371 0.9712
vn 0.0533 0.1586 0.9859
vn -0.0641 0.1112 0.9917
vn -0.1822 -0.0426 0.9823
vn -0.4083 -0.3266 0.8524
vn -0.0949 -0.2573 0.9617
vn -0.3469 0.1634 0.9235
vn -0.1849 0.0582 0.9810
vn 0.0227 0.1198 0.9925
vn 0.0528 0.0019 0.9986
vn -0.0275 0.1862 0.9821
vn 0.0339 -0.0439 0.9985
vn -0.2839 -0.4746 0.8332
vn -0.1196 -0.5576 0.8215
vn -0.2578 -0.0884 0.9622
vn -0.1376 -0.3063 0.9420
vn -0.0134 -0.3086 0.9511
vn 0.0291 -0.2303 0.9727
vn -0.0682 -0.2534 0.9650
vn 0.2374 -0.2187 0.9465
vn 0.0246 -0.5371 0.8432
vn -0.1973 -0.7404 0.6426
vn -0.1485 -0.4627 0.8740
vn -0.0963 -0.5271 0.8443
vn -0.0419 -0.5387 0.8415
vn 0.0101 -0.3882 0.9215
vn -0.0178 -0.5368 0.8435
vn 0.1881 -0.5384 0.8214
vn 0.2818 -0.4529 0.8459
vn -0.1498 -0.8411 0.5198
vn -0.1342 -0.7436 0.6550
vn -0.1494 -0.6410 0.7528
vn -0.1230 -0.5521 0.8247
vn 0.0125 -0.5291 0.8485
vn 0.0795 -0.5936 0.8008
vn 0.1796 -0.6530 0.7358
vn 0.3170 -0.5988 0.7355
vn 0.0956 -0.7292 0.6776
vn -0.2031 -0.8245 0.5282
vn -0.2251 -0.7505 0.6213
vn -0.1271 -0.8394 0.5284
vn 0.0183 -0.7681 0.6400
vn 0.1076 -0.8050 0.5834
vn 0.2581 -0.8278 0.4981
vn 0.2413 -0.8139 0.5285
vn 0.2389 -0.8088 0.5373
vn -0.2573 -0.9108 0.3229
vn -0.1514 -0.9271 0.3428
vn -0.1046 -0.9560 0.2741
vn -0.0318 -0.9715 0.2348
vn 0.2033 -0.9689 0.1412
vn 0.2097 -0.9705 0.1191
vn 0.2604 -0.9550 0.1417
vn 0.2353 -0.9672 0.0958
vn -0.2893 -0.9205 -0.2628
vn -0.2019 -0.9668 -0.1568
vn -0.0114 -0.9993 -0.0351
vn 0.0583 -0.9838 -0.1693
vn 0.1913 -0.9498 -0.2474
vn 0.1886 -0.9449 -0.2677
vn 0.2196 -0.9396 -0.2624
vn -0.0047 -0.9736 0.2282
vn -0.2421 -0.8087 -0.5361
vn -0.2389 -0.8190 -0.5216
vn -0.1275 -0.9033 -0.4097
vn 0.1136 -0.9664 -0.2304
vn 0.1727 -0.9838 -0.0487
vn 0.2042 -0.9786 0.0238
vn 0.0263 -0.9926 0.1189
vn -0.0619 -0.9783 0.1978
vn -0.1563 -0.9698 -0.1871
vn -0.2829 -0.9339 -0.2187
vn -0.2703 -0.9535 -0.1335
vn -0.0443 -0.9988 -0.0230
vn 0.0107 -0.9836 0.1800
vn 0.1990 -0.9466 0.2536
vn 0.0725 -0.9865 0.1468
vn 0.0642 -0.9974 0.0330
vn -0.0733 -0.9944 0.0767
vn -0.3163 -0.9453 0.0797
vn -0.1858 -0.9706 -0.1533
vn -0.0664 -0.9333 -0.3528
vn 0.0456 -0.9573 -0.2855
vn 0.1981 -0.9254 -0.3232
vn 0.1178 -0.9753 -0.1869
vn 0.0116 -0.9836 -0.1800
vn -0.1241 -0.8611 -0.4931
vn -0.2680 -0.7940 -0.5457
vn 0.0081 -0.6690 -0.7433
vn -0.0893 -0.6335 -0.7685
vn 0.0006 -0.7311 -0.6823
vn 0.1717 -0.6545 -0.7363
vn 0.0031 -0.8032 -0.5957
vn -0.0356 -0.8821 -0.4697
vn -0.0806 -0.6199 -0.7806
vn -0.2074 -0.4769 -0.8541
vn -0.0159 -0.5952 -0.8034
vn -0.0190 -0.5398 -0.8416
vn 0.0167 -0.3409 -0.9400
vn 0.1238 -0.3225 -0.9384
vn -0.1077 -0.2705 -0.9567
vn -0.1966 -0.6003 -0.7753
vn -0.1416 -0.5765 -0.8048
vn -0.1444 -0.3005 -0.9428
vn -0.0319 -0.2410 -0.9700
vn 0.0509 -0.3385 -0.9396
vn 0.1063 -0.1772 -0.9784
vn 0.1585 -0.1168 -0.9804
vn -0.1424 -0.1789 -0.9735
vn -0.4524 -0.3232 -0.8312
vn -0.1536 -0.3410 -0.9274
vn 0.0515 -0.2860 -0.9568
vn -0.0464 -0.0389 -0.9982
vn -0.0122 -0.1440 -0.9895
vn 0.1790 -0.0207 -0.9836
vn 0.1107 -0.1419 -0.9837
vn -0.2360 -0.5688 -0.7879
vn -0.4748 -0.2328 -0.8487
vn -0.1696 -0.0257 -0.9852
vn 0.0686 -0.1477 -0.9866
vn 0.0342 -0.0125 -0.9993
vn 0.0352 0.1294 -0.9910
vn 0.0854 -0.1374 -0.9868
vn -0.0914 -0.4236 -0.9012
vn -0.2142 -0.5270 -0.8224
vn -0.2643 -0.2477 -0.9321
vt 1.000000 0.944444
vt 0.968750 1.000000
vt 0.968750 0.944444
vt 0.937500 1.000000
vt 0.937500 0.944444
vt 0.906250 1.000000
vt 0.906250 0.944444
vt 0.875000 0.944444
vt 0.843750 1.000000
vt 0.843750 0.944444
vt 0.812500 1.000000
vt 0.812500 0.944444
vt 0.781250 1.000000
vt 0.781250 0.944444
vt 0.750000 1.000000
vt 0.750000 0.944444
vt 0.718750 1.000000
vt 0.718750 0.944444
vt 0.687500 1.000000
vt 0.687500 0.944444
vt 0.656250 1.000000
vt 0.656250 0.944444
vt 0.625000 1.000000
vt 0.625000 0.944444
vt 0.593750 1.000000
vt 0.593750 0.944444
vt 0.562500 1.000000
vt 0.562500 0.944444
vt 0.531250 1.000000
vt 0.531250 0.944444
vt 0.500000 1.000000
vt 0.500000 0.944444
vt 0.468750 1.000000
vt 0.468750 0.944444
vt 0.437500 1.000000
vt 0.437500 0.944444
vt 0.406250 1.000000
vt 0.406250 0.944444
vt 0.375000 1.000000
vt 0.375000 0.944444
vt 0.343750 0.944444
vt 0.312500 1.000000
vt 0.312500 0.944444
vt 0.281250 0.944444
vt 0.281250 1.000000
vt 0.250000 0.944444
vt 0.250000 1.000000
vt 0.218750 0.944444
vt 0.218750 1.000000
vt 0.187500 0.944444
vt 0.187500 1.000000
vt 0.156250 0.944444
vt 0.125000 1.000000
vt 0.125000 0.944444
vt 0.093750 0.944444
vt 0.062500 1.000000
vt 0.062500 0.944444
vt 0.031250 0.944444
vt 0.000000 1.000000
vt 0.000000 0.944444
vt 0.031250 0.555556
vt 0.000000 0.500000
vt 0.031250 0.500000
vt 0.000000 0.611111
vt 0.000000 0.555556
vt 0.031250 0.611111
vt 0.000000 0.666667
vt 0.031250 0.666667
vt 0.000000 0.722222
vt 0.031250 0.722222
vt 0.000000 0.777778
vt 0.031250 0.833333
vt 0.031250 0.777778
vt 0.000000 0.888889
vt 0.000000 0.833333
vt 0.031250 0.888889
vt 0.062500 0.555556
vt 0.062500 0.500000
vt 0.062500 0.611111
vt 0.062500 0.666667
vt 0.062500 0.722222
vt 0.062500 0.833333
vt 0.062500 0.777778
vt 0.062500 0.888889
vt 0.093750 0.555556
vt 0.093750 0.500000
vt 0.093750 0.611111
vt 0.093750 0.666667
vt 0.093750 0.722222
vt 0.093750 0.777778
vt 0.093750 0.888889
vt 0.093750 0.833333
vt 0.125000 0.500000
vt 0.125000 0.611111
vt 0.125000 0.555556
vt 0.125000 0.666667
vt 0.125000 0.777778
vt 0.125000 0.722222
vt 0.125000 0.888889
vt 0.125000 0.833333
vt 0.156250 0.500000
vt 0.156250 0.611111
vt 0.156250 0.555556
vt 0.156250 0.666667
vt 0.156250 0.777778
vt 0.156250 0.722222
vt 0.156250 0.888889
vt 0.156250 0.833333
vt 0.187500 0.500000
vt 0.187500 0.611111
vt 0.187500 0.555556
vt 0.187500 0.722222
vt 0.187500 0.666667
vt 0.187500 0.777778
vt 0.187500 0.833333
vt 0.187500 0.888889
vt 0.218750 0.555556
vt 0.218750 0.500000
vt 0.218750 0.666667
vt 0.218750 0.611111
vt 0.218750 0.722222
vt 0.218750 0.777778
vt 0.218750 0.833333
vt 0.218750 0.888889
vt 0.250000 0.555556
vt 0.250000 0.500000
vt 0.250000 0.666667
vt 0.250000 0.611111
vt 0.250000 0.722222
vt 0.250000 0.833333
vt 0.250000 0.777778
vt 0.250000 0.888889
vt 0.281250 0.500000
vt 0.281250 0.555556
vt 0.281250 0.611111
vt 0.281250 0.666667
vt 0.281250 0.722222
vt 0.281250 0.777778
vt 0.281250 0.888889
vt 0.281250 0.833333
vt 0.312500 0.500000
vt 0.312500 0.555556
vt 0.312500 0.611111
vt 0.312500 0.666667
vt 0.312500 0.722222
vt 0.312500 0.833333
vt 0.312500 0.777778
vt 0.312500 0.888889
vt 0.343750 0.500000
vt 0.343750 0.555556
vt 0.343750 0.611111
vt 0.343750 0.666667
vt 0.343750 0.777778
vt 0.343750 0.722222
vt 0.343750 0.888889
vt 0.343750 0.833333
vt 0.375000 0.555556
vt 0.375000 0.500000
vt 0.375000 0.611111
vt 0.375000 0.666667
vt 0.375000 0.722222
vt 0.375000 0.777778
vt 0.375000 0.833333
vt 0.375000 0.888889
vt 0.406250 0.555556
vt 0.406250 0.500000
vt 0.406250 0.611111
vt 0.406250 0.666667
vt 0.406250 0.722222
vt 0.406250 0.777778
vt 0.406250 0.833333
vt 0.406250 0.888889
vt 0.437500 0.555556
vt 0.437500 0.500000
vt 0.437500 0.611111
vt 0.437500 0.666667
vt 0.437500 0.777778
vt 0.437500 0.722222
vt 0.437500 0.888889
vt 0.437500 0.833333
vt 0.468750 0.500000
vt 0.468750 0.611111
vt 0.468750 0.555556
vt 0.468750 0.666667
vt 0.468750 0.722222
vt 0.468750 0.833333
vt 0.468750 0.777778
vt 0.468750 0.888889
vt 0.500000 0.500000
vt 0.500000 0.611111
vt 0.500000 0.555556
vt 0.500000 0.666667
vt 0.500000 0.722222
vt 0.500000 0.833333
vt 0.500000 0.777778
vt 0.500000 0.888889
vt 0.531250 0.500000
vt 0.531250 0.611111
vt 0.531250 0.555556
vt 0.531250 0.666667
vt 0.531250 0.722222
vt 0.531250 0.777778
vt 0.531250 0.833333
vt 0.531250 0.888889
vt 0.562500 0.555556
vt 0.562500 0.500000
vt 0.562500 0.666667
vt 0.562500 0.611111
vt 0.562500 0.722222
vt 0.562500 0.777778
vt 0.562500 0.888889
vt 0.562500 0.833333
vt 0.593750 0.555556
vt 0.593750 0.500000
vt 0.593750 0.611111
vt 0.593750 0.722222
vt 0.593750 0.666667
vt 0.593750 0.777778
vt 0.593750 0.888889
vt 0.593750 0.833333
vt 0.625000 0.555556
vt 0.625000 0.500000
vt 0.625000 0.611111
vt 0.625000 0.666667
vt 0.625000 0.722222
vt 0.625000 0.777778
vt 0.625000 0.833333
vt 0.625000 0.888889
vt 0.656250 0.555556
vt 0.656250 0.500000
vt 0.656250 0.611111
vt 0.656250 0.666667
vt 0.656250 0.777778
vt 0.656250 0.722222
vt 0.656250 0.833333
vt 0.656250 0.888889
vt 0.687500 0.555556
vt 0.687500 0.500000
vt 0.687500 0.611111
vt 0.687500 0.666667
vt 0.687500 0.777778
vt 0.687500 0.722222
vt 0.687500 0.888889
vt 0.687500 0.833333
vt 0.718750 0.555556
vt 0.718750 0.500000
vt 0.718750 0.611111
vt 0.718750 0.666667
vt 0.718750 0.777778
vt 0.718750 0.722222
vt 0.718750 0.833333
vt 0.718750 0.888889
vt 0.750000 0.555556
vt 0.750000 0.500000
vt 0.750000 0.611111
vt 0.750000 0.666667
vt 0.750000 0.722222
vt 0.750000 0.833333
vt 0.750000 0.777778
vt 0.750000 0.888889
vt 0.781250 0.555556
vt 0.781250 0.500000
vt 0.781250 0.611111
vt 0.781250 0.722222
vt 0.781250 0.666667
vt 0.781250 0.833333
vt 0.781250 0.777778
vt 0.781250 0.888889
vt 0.812500 0.555556
vt 0.812500 0.500000
vt 0.812500 0.611111
vt 0.812500 0.722222
vt 0.812500 0.666667
vt 0.812500 0.777778
vt 0.812500 0.833333
vt 0.812500 0.888889
vt 0.843750 0.500000
vt 0.843750 0.555556
vt 0.843750 0.611111
vt 0.843750 0.722222
vt 0.843750 0.666667
vt 0.843750 0.833333
vt 0.843750 0.777778
vt 0.843750 0.888889
vt 0.875000 0.555556
vt 0.875000 0.500000
vt 0.875000 0.611111
vt 0.875000 0.666667
vt 0.875000 0.722222
vt 0.875000 0.777778
vt 0.875000 0.833333
vt 0.875000 0.888889
vt 0.906250 0.555556
vt 0.906250 0.500000
vt 0.906250 0.611111
vt 0.906250 0.666667
vt 0.906250 0.722222
vt 0.906250 0.833333
vt 0.906250 0.777778
vt 0.906250 0.888889
vt 0.937500 0.500000
vt 0.937500 0.611111
vt 0.937500 0.555556
vt 0.937500 0.666667
vt 0.937500 0.722222
vt 0.937500 0.833333
vt 0.937500 0.777778
vt 0.937500 0.888889
vt 0.968750 0.500000
vt 0.968750 0.555556
vt 0.968750 0.666667
vt 0.968750 0.611111
vt 0.968750 0.722222
vt 0.968750 0.833333
vt 0.968750 0.777778
vt 0.968750 0.888889
vt 1.000000 0.555556
vt 1.000000 0.500000
vt 1.000000 0.611111
vt 1.000000 0.666667
vt 1.000000 0.722222
vt 1.000000 0.833333
vt 1.000000 0.777778
vt 1.000000 0.888889
vt 1.000000 1.000000
vt 0.875000 1.000000
vt 0.343750 1.000000
vt 0.156250 1.000000
vt 0.093750 1.000000
vt 0.031250 1.000000
s 1
usemtl Material.001
f 72/1/72 4/2/4 73/3/73
f 73/3/73 6/4/6 81/5/81
f 81/5/81 8/6/8 89/7/89
f 8/6/8 97/8/97 89/7/89
f 97/8/97 12/9/12 105/10/105
f 105/10/105 14/11/14 113/12/113
f 113/12/113 16/13/16 121/14/121
f 121/14/121 18/15/18 129/16/129
f 129/16/129 20/17/20 137/18/137
f 137/18/137 22/19/22 145/20/145
f 145/20/145 24/21/24 153/22/153
f 153/22/153 26/23/26 161/24/161
f 161/24/161 28/25/28 169/26/169
f 169/26/169 30/27/30 177/28/177
f 177/28/177 32/29/32 185/30/185
f 185/30/185 34/31/34 193/32/193
f 193/32/193 36/33/36 201/34/201
f 201/34/201 38/35/38 209/36/209
f 209/36/209 40/37/40 217/38/217
f 217/38/217 42/39/42 225/40/225
f 42/39/42 233/41/233 225/40/225
f 233/41/233 46/42/46 241/43/241
f 46/42/46 249/44/249 241/43/241
f 48/45/48 257/46/257 249/44/249
f 50/47/50 265/48/265 257/46/257
f 52/49/52 273/50/273 265/48/265
f 54/51/54 281/52/281 273/50/273
f 281/52/281 58/53/58 289/54/289
f 58/53/58 297/55/297 289/54/289
f 297/55/297 62/56/62 305/57/305
f 62/56/62 313/58/313 305/57/305
f 313/58/313 2/59/2 72/60/72
f 320/61/320 1/62/1 63/63/63
f 320/61/320 66/64/66 65/65/65
f 319/66/319 67/67/67 66/64/66
f 318/68/318 68/69/68 67/67/67
f 317/70/317 69/71/69 68/69/68
f 315/72/315 69/71/69 316/73/316
f 315/72/315 71/74/71 70/75/70
f 313/58/313 71/74/71 314/76/314
f 312/77/312 63/63/63 61/78/61
f 312/77/312 319/66/319 320/61/320
f 311/79/311 318/68/318 319/66/319
f 310/80/310 317/70/317 318/68/318
f 309/81/309 316/73/316 317/70/317
f 307/82/307 316/73/316 308/83/308
f 306/84/306 315/72/315 307/82/307
f 306/84/306 313/58/313 314/76/314
f 304/85/304 61/78/61 59/86/59
f 303/87/303 312/77/312 304/85/304
f 303/87/303 310/80/310 311/79/311
f 302/88/302 309/81/309 310/80/310
f 301/89/301 308/83/308 309/81/309
f 300/90/300 307/82/307 308/83/308
f 298/91/298 307/82/307 299/92/299
f 297/55/297 306/84/306 298/91/298
f 57/93/57 304/85/304 59/86/59
f 295/94/295 304/85/304 296/95/296
f 295/94/295 302/88/302 303/87/303
f 294/96/294 301/89/301 302/88/302
f 292/97/292 301/89/301 293/98/293
f 292/97/292 299/92/299 300/90/300
f 290/99/290 299/92/299 291/100/291
f 289/54/289 298/91/298 290/99/290
f 55/101/55 296/95/296 57/93/57
f 287/102/287 296/95/296 288/103/288
f 287/102/287 294/96/294 295/94/295
f 286/104/286 293/98/293 294/96/294
f 284/105/284 293/98/293 285/106/285
f 284/105/284 291/100/291 292/97/292
f 282/107/282 291/100/291 283/108/283
f 281/52/281 290/99/290 282/107/282
f 53/109/53 288/103/288 55/101/55
f 279/110/279 288/103/288 280/111/280
f 279/110/279 286/104/286 287/102/287
f 277/112/277 286/104/286 278/113/278
f 276/114/276 285/106/285 277/112/277
f 276/114/276 283/108/283 284/105/284
f 275/115/275 282/107/282 283/108/283
f 274/116/274 281/52/281 282/107/282
f 272/117/272 53/109/53 51/118/51
f 272/117/272 279/110/279 280/111/280
f 270/119/270 279/110/279 271/120/271
f 269/121/269 278/113/278 270/119/270
f 269/121/269 276/114/276 277/112/277
f 268/122/268 275/115/275 276/114/276
f 267/123/267 274/116/274 275/115/275
f 266/124/266 273/50/273 274/116/274
f 264/125/264 51/118/51 49/126/49
f 264/125/264 271/120/271 272/117/272
f 262/127/262 271/120/271 263/128/263
f 261/129/261 270/119/270 262/127/262
f 261/129/261 268/122/268 269/121/269
f 259/130/259 268/122/268 260/131/260
f 258/132/258 267/123/267 259/130/259
f 257/46/257 266/124/266 258/132/258
f 47/133/47 264/125/264 49/126/49
f 256/134/256 263/128/263 264/125/264
f 255/135/255 262/127/262 263/128/263
f 254/136/254 261/129/261 262/127/262
f 253/137/253 260/131/260 261/129/261
f 252/138/252 259/130/259 260/131/260
f 250/139/250 259/130/259 251/140/251
f 249/44/249 258/132/258 250/139/250
f 45/141/45 256/134/256 47/133/47
f 248/142/248 255/135/255 256/134/256
f 247/143/247 254/136/254 255/135/255
f 246/144/246 253/137/253 254/136/254
f 245/145/245 252/138/252 253/137/253
f 243/146/243 252/138/252 244/147/244
f 242/148/242 251/140/251 243/146/243
f 241/43/241 250/139/250 242/148/242
f 43/149/43 248/142/248 45/141/45
f 240/150/240 247/143/247 248/142/248
f 239/151/239 246/144/246 247/143/247
f 238/152/238 245/145/245 246/144/246
f 236/153/236 245/145/245 237/154/237
f 236/153/236 243/146/243 244/147/244
f 234/155/234 243/146/243 235/156/235
f 234/155/234 241/43/241 242/148/242
f 232/157/232 43/149/43 41/158/41
f 231/159/231 240/150/240 232/157/232
f 230/160/230 239/151/239 231/159/231
f 229/161/229 238/152/238 230/160/230
f 228/162/228 237/154/237 229/161/229
f 227/163/227 236/153/236 228/162/228
f 227/163/227 234/155/234 235/156/235
f 226/164/226 233/41/233 234/155/234
f 224/165/224 41/158/41 39/166/39
f 223/167/223 232/157/232 224/165/224
f 222/168/222 231/159/231 223/167/223
f 221/169/221 230/160/230 222/168/222
f 220/170/220 229/161/229 221/169/221
f 220/170/220 227/163/227 228/162/228
f 219/171/219 226/164/226 227/163/227
f 217/38/217 226/164/226 218/172/218
f 216/173/216 39/166/39 37/174/37
f 215/175/215 224/165/224 216/173/216
f 215/175/215 222/168/222 223/167/223
f 214/176/214 221/169/221 222/168/222
f 212/177/212 221/169/221 213/178/213
f 212/177/212 219/171/219 220/170/220
f 210/179/210 219/171/219 211/180/211
f 210/179/210 217/38/217 218/172/218
f 35/181/35 216/173/216 37/174/37
f 207/182/207 216/173/216 208/183/208
f 206/184/206 215/175/215 207/182/207
f 205/185/205 214/176/214 206/184/206
f 205/185/205 212/177/212 213/178/213
f 203/186/203 212/177/212 204/187/204
f 203/186/203 210/179/210 211/180/211
f 202/188/202 209/36/209 210/179/210
f 33/189/33 208/183/208 35/181/35
f 199/190/199 208/183/208 200/191/200
f 198/192/198 207/182/207 199/190/199
f 197/193/197 206/184/206 198/192/198
f 197/193/197 204/187/204 205/185/205
f 195/194/195 204/187/204 196/195/196
f 195/194/195 202/188/202 203/186/203
f 194/196/194 201/34/201 202/188/202
f 31/197/31 200/191/200 33/189/33
f 191/198/191 200/191/200 192/199/192
f 190/200/190 199/190/199 191/198/191
f 189/201/189 198/192/198 190/200/190
f 188/202/188 197/193/197 189/201/189
f 188/202/188 195/194/195 196/195/196
f 187/203/187 194/196/194 195/194/195
f 186/204/186 193/32/193 194/196/194
f 184/205/184 31/197/31 29/206/29
f 184/205/184 191/198/191 192/199/192
f 182/207/182 191/198/191 183/208/183
f 181/209/181 190/200/190 182/207/182
f 180/210/180 189/201/189 181/209/181
f 180/210/180 187/203/187 188/202/188
f 178/211/178 187/203/187 179/212/179
f 177/28/177 186/204/186 178/211/178
f 176/213/176 29/206/29 27/214/27
f 175/215/175 184/205/184 176/213/176
f 175/215/175 182/207/182 183/208/183
f 173/216/173 182/207/182 174/217/174
f 172/218/172 181/209/181 173/216/173
f 172/218/172 179/212/179 180/210/180
f 170/219/170 179/212/179 171/220/171
f 170/219/170 177/28/177 178/211/178
f 168/221/168 27/214/27 25/222/25
f 167/223/167 176/213/176 168/221/168
f 167/223/167 174/217/174 175/215/175
f 166/224/166 173/216/173 174/217/174
f 165/225/165 172/218/172 173/216/173
f 164/226/164 171/220/171 172/218/172
f 163/227/163 170/219/170 171/220/171
f 162/228/162 169/26/169 170/219/170
f 160/229/160 25/222/25 23/230/23
f 159/231/159 168/221/168 160/229/160
f 159/231/159 166/224/166 167/223/167
f 158/232/158 165/225/165 166/224/166
f 156/233/156 165/225/165 157/234/157
f 156/233/156 163/227/163 164/226/164
f 155/235/155 162/228/162 163/227/163
f 154/236/154 161/24/161 162/228/162
f 152/237/152 23/230/23 21/238/21
f 151/239/151 160/229/160 152/237/152
f 151/239/151 158/232/158 159/231/159
f 150/240/150 157/234/157 158/232/158
f 148/241/148 157/234/157 149/242/149
f 148/241/148 155/235/155 156/233/156
f 146/243/146 155/235/155 147/244/147
f 146/243/146 153/22/153 154/236/154
f 144/245/144 21/238/21 19/246/19
f 143/247/143 152/237/152 144/245/144
f 143/247/143 150/240/150 151/239/151
f 142/248/142 149/242/149 150/240/150
f 140/249/140 149/242/149 141/250/141
f 139/251/139 148/241/148 140/249/140
f 138/252/138 147/244/147 139/251/139
f 138/252/138 145/20/145 146/243/146
f 136/253/136 19/246/19 17/254/17
f 136/253/136 143/247/143 144/245/144
f 135/255/135 142/248/142 143/247/143
f 134/256/134 141/250/141 142/248/142
f 133/257/133 140/249/140 141/250/141
f 131/258/131 140/249/140 132/259/132
f 130/260/130 139/251/139 131/258/131
f 130/260/130 137/18/137 138/252/138
f 128/261/128 17/254/17 15/262/15
f 128/261/128 135/255/135 136/253/136
f 127/263/127 134/256/134 135/255/135
f 125/264/125 134/256/134 126/265/126
f 125/264/125 132/259/132 133/257/133
f 123/266/123 132/259/132 124/267/124
f 122/268/122 131/258/131 123/266/123
f 122/268/122 129/16/129 130/260/130
f 120/269/120 15/262/15 13/270/13
f 120/269/120 127/263/127 128/261/128
f 119/271/119 126/265/126 127/263/127
f 117/272/117 126/265/126 118/273/118
f 116/274/116 125/264/125 117/272/117
f 115/275/115 124/267/124 116/274/116
f 115/275/115 122/268/122 123/266/123
f 114/276/114 121/14/121 122/268/122
f 11/277/11 120/269/120 13/270/13
f 112/278/112 119/271/119 120/269/120
f 111/279/111 118/273/118 119/271/119
f 109/280/109 118/273/118 110/281/110
f 109/280/109 116/274/116 117/272/117
f 107/282/107 116/274/116 108/283/108
f 107/282/107 114/276/114 115/275/115
f 106/284/106 113/12/113 114/276/114
f 104/285/104 11/277/11 9/286/9
f 103/287/103 112/278/112 104/285/104
f 102/288/102 111/279/111 103/287/103
f 102/288/102 109/280/109 110/281/110
f 101/289/101 108/283/108 109/280/109
f 100/290/100 107/282/107 108/283/108
f 99/291/99 106/284/106 107/282/107
f 98/292/98 105/10/105 106/284/106
f 96/293/96 9/286/9 7/294/7
f 95/295/95 104/285/104 96/293/96
f 94/296/94 103/287/103 95/295/95
f 94/296/94 101/289/101 102/288/102
f 93/297/93 100/290/100 101/289/101
f 91/298/91 100/290/100 92/299/92
f 90/300/90 99/291/99 91/298/91
f 90/300/90 97/8/97 98/292/98
f 5/301/5 96/293/96 7/294/7
f 87/302/87 96/293/96 88/303/88
f 86/304/86 95/295/95 87/302/87
f 86/304/86 93/297/93 94/296/94
f 85/305/85 92/299/92 93/297/93
f 83/306/83 92/299/92 84/307/84
f 82/308/82 91/298/91 83/306/83
f 81/5/81 90/300/90 82/308/82
f 3/309/3 88/303/88 5/301/5
f 80/310/80 87/302/87 88/303/88
f 78/311/78 87/302/87 79/312/79
f 78/311/78 85/305/85 86/304/86
f 77/313/77 84/307/84 85/305/85
f 75/314/75 84/307/84 76/315/76
f 74/316/74 83/306/83 75/314/75
f 73/3/73 82/308/82 74/316/74
f 65/317/65 3/309/3 1/318/1
f 66/319/66 80/310/80 65/317/65
f 66/319/66 78/311/78 79/312/79
f 67/320/67 77/313/77 78/311/78
f 68/321/68 76/315/76 77/313/77
f 70/322/70 76/315/76 69/323/69
f 71/324/71 75/314/75 70/322/70
f 71/324/71 73/3/73 74/316/74
f 72/1/72 2/325/2 4/2/4
f 73/3/73 4/2/4 6/4/6
f 81/5/81 6/4/6 8/6/8
f 8/6/8 10/326/10 97/8/97
f 97/8/97 10/326/10 12/9/12
f 105/10/105 12/9/12 14/11/14
f 113/12/113 14/11/14 16/13/16
f 121/14/121 16/13/16 18/15/18
f 129/16/129 18/15/18 20/17/20
f 137/18/137 20/17/20 22/19/22
f 145/20/145 22/19/22 24/21/24
f 153/22/153 24/21/24 26/23/26
f 161/24/161 26/23/26 28/25/28
f 169/26/169 28/25/28 30/27/30
f 177/28/177 30/27/30 32/29/32
f 185/30/185 32/29/32 34/31/34
f 193/32/193 34/31/34 36/33/36
f 201/34/201 36/33/36 38/35/38
f 209/36/209 38/35/38 40/37/40
f 217/38/217 40/37/40 42/39/42
f 42/39/42 44/327/44 233/41/233
f 233/41/233 44/327/44 46/42/46
f 46/42/46 48/45/48 249/44/249
f 48/45/48 50/47/50 257/46/257
f 50/47/50 52/49/52 265/48/265
f 52/49/52 54/51/54 273/50/273
f 54/51/54 56/328/56 281/52/281
f 281/52/281 56/328/56 58/53/58
f 58/53/58 60/329/60 297/55/297
f 297/55/297 60/329/60 62/56/62
f 62/56/62 64/330/64 313/58/313
f 313/58/313 64/330/64 2/59/2
f 320/61/320 65/65/65 1/62/1
f 320/61/320 319/66/319 66/64/66
f 319/66/319 318/68/318 67/67/67
f 318/68/318 317/70/317 68/69/68
f 317/70/317 316/73/316 69/71/69
f 315/72/315 70/75/70 69/71/69
f 315/72/315 314/76/314 71/74/71
f 313/58/313 72/60/72 71/74/71
f 312/77/312 320/61/320 63/63/63
f 312/77/312 311/79/311 319/66/319
f 311/79/311 310/80/310 318/68/318
f 310/80/310 309/81/309 317/70/317
f 309/81/309 308/83/308 316/73/316
f 307/82/307 315/72/315 316/73/316
f 306/84/306 314/76/314 315/72/315
f 306/84/306 305/57/305 313/58/313
f 304/85/304 312/77/312 61/78/61
f 303/87/303 311/79/311 312/77/312
f 303/87/303 302/88/302 310/80/310
f 302/88/302 301/89/301 309/81/309
f 301/89/301 300/90/300 308/83/308
f 300/90/300 299/92/299 307/82/307
f 298/91/298 306/84/306 307/82/307
f 297/55/297 305/57/305 306/84/306
f 57/93/57 296/95/296 304/85/304
f 295/94/295 303/87/303 304/85/304
f 295/94/295 294/96/294 302/88/302
f 294/96/294 293/98/293 301/89/301
f 292/97/292 300/90/300 301/89/301
f 292/97/292 291/100/291 299/92/299
f 290/99/290 298/91/298 299/92/299
f 289/54/289 297/55/297 298/91/298
f 55/101/55 288/103/288 296/95/296
f 287/102/287 295/94/295 296/95/296
f 287/102/287 286/104/286 294/96/294
f 286/104/286 285/106/285 293/98/293
f 284/105/284 292/97/292 293/98/293
f 284/105/284 283/108/283 291/100/291
f 282/107/282 290/99/290 291/100/291
f 281/52/281 289/54/289 290/99/290
f 53/109/53 280/111/280 288/103/288
f 279/110/279 287/102/287 288/103/288
f 279/110/279 278/113/278 286/104/286
f 277/112/277 285/106/285 286/104/286
f 276/114/276 284/105/284 285/106/285
f 276/114/276 275/115/275 283/108/283
f 275/115/275 274/116/274 282/107/282
f 274/116/274 273/50/273 281/52/281
f 272/117/272 280/111/280 53/109/53
f 272/117/272 271/120/271 279/110/279
f 270/119/270 278/113/278 279/110/279
f 269/121/269 277/112/277 278/113/278
f 269/121/269 268/122/268 276/114/276
f 268/122/268 267/123/267 275/115/275
f 267/123/267 266/124/266 274/116/274
f 266/124/266 265/48/265 273/50/273
f 264/125/264 272/117/272 51/118/51
f 264/125/264 263/128/263 271/120/271
f 262/127/262 270/119/270 271/120/271
f 261/129/261 269/121/269 270/119/270
f 261/129/261 260/131/260 268/122/268
f 259/130/259 267/123/267 268/122/268
f 258/132/258 266/124/266 267/123/267
f 257/46/257 265/48/265 266/124/266
f 47/133/47 256/134/256 264/125/264
f 256/134/256 255/135/255 263/128/263
f 255/135/255 254/136/254 262/127/262
f 254/136/254 253/137/253 261/129/261
f 253/137/253 252/138/252 260/131/260
f 252/138/252 251/140/251 259/130/259
f 250/139/250 258/132/258 259/130/259
f 249/44/249 257/46/257 258/132/258
f 45/141/45 248/142/248 256/134/256
f 248/142/248 247/143/247 255/135/255
f 247/143/247 246/144/246 254/136/254
f 246/144/246 245/145/245 253/137/253
f 245/145/245 244/147/244 252/138/252
f 243/146/243 251/140/251 252/138/252
f 242/148/242 250/139/250 251/140/251
f 241/43/241 249/44/249 250/139/250
f 43/149/43 240/150/240 248/142/248
f 240/150/240 239/151/239 247/143/247
f 239/151/239 238/152/238 246/144/246
f 238/152/238 237/154/237 245/145/245
f 236/153/236 244/147/244 245/145/245
f 236/153/236 235/156/235 243/146/243
f 234/155/234 242/148/242 243/146/243
f 234/155/234 233/41/233 241/43/241
f 232/157/232 240/150/240 43/149/43
f 231/159/231 239/151/239 240/150/240
f 230/160/230 238/152/238 239/151/239
f 229/161/229 237/154/237 238/152/238
f 228/162/228 236/153/236 237/154/237
f 227/163/227 235/156/235 236/153/236
f 227/163/227 226/164/226 234/155/234
f 226/164/226 225/40/225 233/41/233
f 224/165/224 232/157/232 41/158/41
f 223/167/223 231/159/231 232/157/232
f 222/168/222 230/160/230 231/159/231
f 221/169/221 229/161/229 230/160/230
f 220/170/220 228/162/228 229/161/229
f 220/170/220 219/171/219 227/163/227
f 219/171/219 218/172/218 226/164/226
f 217/38/217 225/40/225 226/164/226
f 216/173/216 224/165/224 39/166/39
f 215/175/215 223/167/223 224/165/224
f 215/175/215 214/176/214 222/168/222
f 214/176/214 213/178/213 221/169/221
f 212/177/212 220/170/220 221/169/221
f 212/177/212 211/180/211 219/171/219
f 210/179/210 218/172/218 219/171/219
f 210/179/210 209/36/209 217/38/217
f 35/181/35 208/183/208 216/173/216
f 207/182/207 215/175/215 216/173/216
f 206/184/206 214/176/214 215/175/215
f 205/185/205 213/178/213 214/176/214
f 205/185/205 204/187/204 212/177/212
f 203/186/203 211/180/211 212/177/212
f 203/186/203 202/188/202 210/179/210
f 202/188/202 201/34/201 209/36/209
f 33/189/33 200/191/200 208/183/208
f 199/190/199 207/182/207 208/183/208
f 198/192/198 206/184/206 207/182/207
f 197/193/197 205/185/205 206/184/206
f 197/193/197 196/195/196 204/187/204
f 195/194/195 203/186/203 204/187/204
f 195/194/195 194/196/194 202/188/202
f 194/196/194 193/32/193 201/34/201
f 31/197/31 192/199/192 200/191/200
f 191/198/191 199/190/199 200/191/200
f 190/200/190 198/192/198 199/190/199
f 189/201/189 197/193/197 198/192/198
f 188/202/188 196/195/196 197/193/197
f 188/202/188 187/203/187 195/194/195
f 187/203/187 186/204/186 194/196/194
f 186/204/186 185/30/185 193/32/193
f 184/205/184 192/199/192 31/197/31
f 184/205/184 183/208/183 191/198/191
f 182/207/182 190/200/190 191/198/191
f 181/209/181 189/201/189 190/200/190
f 180/210/180 188/202/188 189/201/189
f 180/210/180 179/212/179 187/203/187
f 178/211/178 186/204/186 187/203/187
f 177/28/177 185/30/185 186/204/186
f 176/213/176 184/205/184 29/206/29
f 175/215/175 183/208/183 184/205/184
f 175/215/175 174/217/174 182/207/182
f 173/216/173 181/209/181 182/207/182
f 172/218/172 180/210/180 181/209/181
f 172/218/172 171/220/171 179/212/179
f 170/219/170 178/211/178 179/212/179
f 170/219/170 169/26/169 177/28/177
f 168/221/168 176/213/176 27/214/27
f 167/223/167 175/215/175 176/213/176
f 167/223/167 166/224/166 174/217/174
f 166/224/166 165/225/165 173/216/173
f 165/225/165 164/226/164 172/218/172
f 164/226/164 163/227/163 171/220/171
f 163/227/163 162/228/162 170/219/170
f 162/228/162 161/24/161 169/26/169
f 160/229/160 168/221/168 25/222/25
f 159/231/159 167/223/167 168/221/168
f 159/231/159 158/232/158 166/224/166
f 158/232/158 157/234/157 165/225/165
f 156/233/156 164/226/164 165/225/165
f 156/233/156 155/235/155 163/227/163
f 155/235/155 154/236/154 162/228/162
f 154/236/154 153/22/153 161/24/161
f 152/237/152 160/229/160 23/230/23
f 151/239/151 159/231/159 160/229/160
f 151/239/151 150/240/150 158/232/158
f 150/240/150 149/242/149 157/234/157
f 148/241/148 156/233/156 157/234/157
f 148/241/148 147/244/147 155/235/155
f 146/243/146 154/236/154 155/235/155
f 146/243/146 145/20/145 153/22/153
f 144/245/144 152/237/152 21/238/21
f 143/247/143 151/239/151 152/237/152
f 143/247/143 142/248/142 150/240/150
f 142/248/142 141/250/141 149/242/149
f 140/249/140 148/241/148 149/242/149
f 139/251/139 147/244/147 148/241/148
f 138/252/138 146/243/146 147/244/147
f 138/252/138 137/18/137 145/20/145
f 136/253/136 144/245/144 19/246/19
f 136/253/136 135/255/135 143/247/143
f 135/255/135 134/256/134 142/248/142
f 134/256/134 133/257/133 141/250/141
f 133/257/133 132/259/132 140/249/140
f 131/258/131 139/251/139 140/249/140
f 130/260/130 138/252/138 139/251/139
f 130/260/130 129/16/129 137/18/137
f 128/261/128 136/253/136 17/254/17
f 128/261/128 127/263/127 135/255/135
f 127/263/127 126/265/126 134/256/134
f 125/264/125 133/257/133 134/256/134
f 125/264/125 124/267/124 132/259/132
f 123/266/123 131/258/131 132/259/132
f 122/268/122 130/260/130 131/258/131
f 122/268/122 121/14/121 129/16/129
f 120/269/120 128/261/128 15/262/15
f 120/269/120 119/271/119 127/263/127
f 119/271/119 118/273/118 126/265/126
f 117/272/117 125/264/125 126/265/126
f 116/274/116 124/267/124 125/264/125
f 115/275/115 123/266/123 124/267/124
f 115/275/115 114/276/114 122/268/122
f 114/276/114 113/12/113 121/14/121
f 11/277/11 112/278/112 120/269/120
f 112/278/112 111/279/111 119/271/119
f 111/279/111 110/281/110 118/273/118
f 109/280/109 117/272/117 118/273/118
f 109/280/109 108/283/108 116/274/116
f 107/282/107 115/275/115 116/274/116
f 107/282/107 106/284/106 114/276/114
f 106/284/106 105/10/105 113/12/113
f 104/285/104 112/278/112 11/277/11
f 103/287/103 111/279/111 112/278/112
f 102/288/102 110/281/110 111/279/111
f 102/288/102 101/289/101 109/280/109
f 101/289/101 100/290/100 108/283/108
f 100/290/100 99/291/99 107/282/107
f 99/291/99 98/292/98 106/284/106
f 98/292/98 97/8/97 105/10/105
f 96/293/96 104/285/104 9/286/9
f 95/295/95 103/287/103 104/285/104
f 94/296/94 102/288/102 103/287/103
f 94/296/94 93/297/93 101/289/101
f 93/297/93 92/299/92 100/290/100
f 91/298/91 99/291/99 100/290/100
f 90/300/90 98/292/98 99/291/99
f 90/300/90 89/7/89 97/8/97
f 5/301/5 88/303/88 96/293/96
f 87/302/87 95/295/95 96/293/96
f 86/304/86 94/296/94 95/295/95
f 86/304/86 85/305/85 93/297/93
f 85/305/85 84/307/84 92/299/92
f 83/306/83 91/298/91 92/299/92
f 82/308/82 90/300/90 91/298/91
f 81/5/81 89/7/89 90/300/90
f 3/309/3 80/310/80 88/303/88
f 80/310/80 79/312/79 87/302/87
f 78/311/78 86/304/86 87/302/87
f 78/311/78 77/313/77 85/305/85
f 77/313/77 76/315/76 84/307/84
f 75/314/75 83/306/83 84/307/84
f 74/316/74 82/308/82 83/306/83
f 73/3/73 81/5/81 82/308/82
f 65/317/65 80/310/80 3/309/3
f 66/319/66 79/312/79 80/310/80
f 66/319/66 67/320/67 78/311/78
f 67/320/67 68/321/68 77/313/77
f 68/321/68 69/323/69 76/315/76
f 70/322/70 75/314/75 76/315/76
f 71/324/71 74/316/74 75/314/75
f 71/324/71 72/1/72 73/3/73
